<?xml version="1.0" encoding="UTF-8" standalone="no"?><!DOCTYPE svg PUBLIC "-//W3C//DTD SVG 1.1//EN" "http://www.w3.org/Graphics/SVG/1.1/DTD/svg11.dtd"><svg width="100%" height="100%" viewBox="0 0 9 9" version="1.1" xmlns="http://www.w3.org/2000/svg" xmlns:xlink="http://www.w3.org/1999/xlink" xml:space="preserve" xmlns:serif="http://www.serif.com/" style="fill-rule:evenodd;clip-rule:evenodd;stroke-linejoin:round;stroke-miterlimit:2;"><path d="M5.255,7.643l-0,-0.623l1.246,0c0.145,0 0.268,-0.05 0.369,-0.15c0.1,-0.101 0.15,-0.224 0.15,-0.369l0,-1.039c0,-0.256 0.078,-0.484 0.234,-0.685c0.156,-0.201 0.355,-0.339 0.597,-0.415l-0,-0.084c-0.242,-0.069 -0.441,-0.206 -0.597,-0.41c-0.156,-0.204 -0.234,-0.434 -0.234,-0.69l0,-1.039c0,-0.145 -0.05,-0.268 -0.15,-0.369c-0.101,-0.1 -0.224,-0.15 -0.369,-0.15l-1.246,-0l-0,-0.623l1.246,-0c0.318,-0 0.588,0.111 0.81,0.332c0.221,0.222 0.332,0.492 0.332,0.81l0,1.039c0,0.145 0.05,0.268 0.151,0.368c0.1,0.101 0.223,0.151 0.369,0.151l0.311,-0l0,1.246l-0.311,0c-0.146,0 -0.269,0.05 -0.369,0.151c-0.101,0.1 -0.151,0.223 -0.151,0.368l0,1.039c0,0.318 -0.111,0.588 -0.332,0.81c-0.222,0.221 -0.492,0.332 -0.81,0.332l-1.246,0Zm-3.116,0c-0.318,0 -0.588,-0.111 -0.81,-0.332c-0.221,-0.222 -0.332,-0.492 -0.332,-0.81l-0,-1.039c-0,-0.145 -0.05,-0.268 -0.151,-0.368c-0.1,-0.101 -0.223,-0.151 -0.369,-0.151l-0.311,0l-0,-1.246l0.311,-0c0.146,-0 0.269,-0.05 0.369,-0.151c0.101,-0.1 0.151,-0.223 0.151,-0.368l-0,-1.039c-0,-0.318 0.111,-0.588 0.332,-0.81c0.222,-0.221 0.492,-0.332 0.81,-0.332l1.246,-0l0,0.623l-1.246,-0c-0.145,-0 -0.268,0.05 -0.369,0.15c-0.1,0.101 -0.15,0.224 -0.15,0.369l-0,1.039c-0,0.256 -0.078,0.486 -0.234,0.69c-0.156,0.204 -0.355,0.341 -0.597,0.41l0,0.084c0.242,0.076 0.441,0.214 0.597,0.415c0.156,0.201 0.234,0.429 0.234,0.685l-0,1.039c-0,0.145 0.05,0.268 0.15,0.369c0.101,0.1 0.224,0.15 0.369,0.15l1.246,0l0,0.623l-1.246,0Z" style="fill:#075985;fill-rule:nonzero;"/><g transform="matrix(6,0,0,6,6.075,6.69528)"></g><text x="2.397px" y="6.695px" style="font-family:'Poppins-Regular', 'Poppins';font-size:6px;fill:#075985;">B</text></svg>